<mxfile host="app.diagrams.net" modified="2024-04-02T13:29:22.660Z" agent="Mozilla/5.0 (Windows NT 10.0; Win64; x64) AppleWebKit/537.36 (KHTML, like Gecko) Chrome/121.0.0.0 Safari/537.36 OPR/107.0.0.0" version="24.2.1" etag="knQDJKUo4mFHlBta95zK" type="github">
  <diagram name="PÃ¡gina-1" id="XwOlwFbRUgJwe2Fws-yk">
    <mxGraphModel>
      <root>
        <mxCell id="0" />
        <mxCell id="1" parent="0" />
      </root>
    </mxGraphModel>
  </diagram>
</mxfile>
